<?xml version="1.0" standalone="no"?>
<!DOCTYPE svg PUBLIC "-//W3C//DTD SVG 20010904//EN"
 "http://www.w3.org/TR/2001/REC-SVG-20010904/DTD/svg10.dtd">
<svg version="1.0" xmlns="http://www.w3.org/2000/svg"
 width="900.000000pt" height="900.000000pt" viewBox="0 0 900.000000 900.000000"
 preserveAspectRatio="xMidYMid meet">
<metadata>
Created by potrace 1.15, written by Peter Selinger 2001-2017
</metadata>
<g transform="translate(0.000000,900.000000) scale(0.100000,-0.100000)"
fill="#000000" stroke="none">
<path d="M7182 8002 c-13 -53 -79 -324 -148 -602 -201 -820 -459 -1872 -540
-2205 -87 -357 -89 -366 -97 -345 -3 8 -25 125 -47 260 -23 135 -75 441 -116
680 -41 239 -86 506 -101 592 -14 86 -29 161 -32 167 -6 9 -354 -58 -506 -97
-35 -9 -4 104 -266 -956 l-182 -739 -38 109 c-21 60 -63 183 -94 274 -97 284
-107 310 -121 310 -17 0 -237 -59 -243 -65 -4 -5 -19 -80 -96 -490 -19 -104
-40 -211 -46 -237 l-11 -48 -2216 2 -2217 3 2212 5 2211 5 -424 340 -424 340
-142 258 -143 257 -96 0 c-79 0 -99 -3 -111 -17 -9 -10 -73 -123 -143 -250
l-128 -233 -623 0 -623 0 -138 250 -138 250 -101 0 -101 0 -101 -182 c-55
-101 -117 -214 -138 -253 -37 -69 -42 -74 -471 -418 l-433 -348 0 -107 0 -107
419 3 419 2 45 -72 c145 -234 527 -873 527 -882 0 -7 -22 -77 -49 -156 -215
-635 -491 -1455 -491 -1461 0 -4 56 -76 123 -160 136 -170 406 -455 418 -442
4 4 70 152 147 328 379 868 522 1195 545 1250 14 33 36 84 50 113 l24 53 391
-848 c215 -467 512 -1111 660 -1433 251 -545 272 -585 298 -592 89 -23 411
-70 563 -83 186 -15 401 -23 401 -15 0 3 -359 725 -798 1605 -439 880 -813
1630 -831 1666 l-32 66 397 532 c251 335 403 531 413 530 9 -1 228 -1 486 0
l470 1 58 253 c32 138 58 258 57 265 0 6 3 12 8 12 4 0 18 -57 31 -128 13 -70
38 -206 57 -302 18 -96 52 -274 75 -395 23 -121 43 -221 44 -223 7 -8 341 -60
347 -54 4 4 86 239 182 522 243 720 275 813 280 818 6 6 8 -6 72 -443 54 -373
144 -990 183 -1253 11 -74 22 -137 25 -140 8 -8 605 -87 610 -81 2 2 26 96 54
209 29 113 70 273 91 355 21 83 77 301 124 485 47 184 143 558 213 830 69 272
164 643 210 824 46 181 85 330 87 333 6 6 19 -90 77 -582 27 -231 63 -532 80
-670 16 -137 38 -326 49 -420 11 -93 56 -471 100 -840 44 -368 119 -996 166
-1395 47 -399 87 -729 88 -734 6 -20 315 417 397 564 49 85 100 175 114 200
15 25 34 59 43 77 18 35 24 -16 -127 993 -33 223 -78 524 -100 670 -45 304
-49 326 -136 910 -35 239 -89 602 -120 805 -30 204 -71 474 -90 600 -19 127
-63 423 -98 659 l-64 429 -138 139 c-110 111 -314 291 -434 385 -13 10 -18 -2
-38 -85z m-4312 -3598 c0 -2 -37 -51 -83 -107 -46 -56 -183 -226 -304 -377
-122 -151 -235 -290 -250 -309 l-29 -34 -129 189 c-218 317 -264 384 -351 511
-46 66 -84 124 -84 127 0 4 277 6 615 6 338 0 615 -3 615 -6z"/>
</g>
</svg>
