<!-- Generated by IcoMoon.io -->
<svg version="1.1" xmlns="http://www.w3.org/2000/svg" width="768" height="768" viewBox="0 0 768 768">
<title></title>
<g id="icomoon-ignore">
</g>
<path fill="#000" d="M608 544h-448c-35.296 0-64 28.704-64 64s28.704 64 64 64h448c35.296 0 64-28.704 64-64s-28.704-64-64-64z"></path>
<path fill="#000" d="M608 320h-448c-35.296 0-64 28.704-64 64s28.704 64 64 64h448c35.296 0 64-28.704 64-64s-28.704-64-64-64z"></path>
<path fill="#000" d="M608 96h-448c-35.296 0-64 28.704-64 64s28.704 64 64 64h448c35.296 0 64-28.704 64-64s-28.704-64-64-64z"></path>
</svg>
