<!-- Generated by IcoMoon.io -->
<svg version="1.1" xmlns="http://www.w3.org/2000/svg" width="1024" height="1024" viewBox="0 0 1024 1024">
<title></title>
<g id="icomoon-ignore">
</g>
<path fill="#000" d="M418.24 166.464l-185.472-49.696c-17.056-4.576-34.592 5.568-39.168 22.624l-190.496 710.912c-4.576 17.088 5.568 34.624 22.656 39.232l185.44 49.696c17.056 4.576 34.624-5.568 39.2-22.624l190.496-710.944c4.544-17.056-5.568-34.624-22.656-39.2zM248.96 798.176c-13.728 51.232-66.336 81.6-117.568 67.872s-81.6-66.336-67.872-117.568 66.336-81.632 117.568-67.872c51.232 13.728 81.6 66.368 67.872 117.568zM285.728 661.024l-185.44-49.696 99.36-370.912 185.472 49.728-99.392 370.88zM606.016 736c-26.528 0-48 21.504-48 48s21.472 48 48 48c26.496 0 48-21.504 48-48s-21.504-48-48-48zM345.952 312.736l-123.68-33.12-8.256 30.912 123.648 33.12 8.288-30.912zM321.056 405.472l8.32-30.912-123.648-33.12-8.288 30.912 123.616 33.12zM168.16 728.896c-25.6-6.88-51.936 8.352-58.784 33.952-6.88 25.632 8.32 51.936 33.952 58.784 25.6 6.88 51.936-8.32 58.784-33.952 6.848-25.6-8.352-51.904-33.952-58.784zM958.016 288h-128v32h128v-32zM958.016 416h-128v32h128v-32zM958.016 352h-128v32h128v-32zM894.016 736c-26.528 0-48 21.504-48 48s21.472 48 48 48c26.496 0 48-21.504 48-48s-21.504-48-48-48zM990.016 128h-192c-17.696 0-32 14.304-32 32v736c0 17.664 14.304 32 32 32h192c17.664 0 32-14.336 32-32v-736c0-17.696-14.368-32-32-32zM894.016 880c-53.024 0-96-43.008-96-96 0-53.024 42.976-96 96-96 52.992 0 96 42.976 96 96 0 52.992-43.008 96-96 96zM990.016 640h-192v-384h192v384zM670.016 288h-128v32h128v-32zM670.016 416h-128v32h128v-32zM702.016 128h-192c-17.696 0-32 14.304-32 32v736c0 17.664 14.304 32 32 32h192c17.664 0 32-14.336 32-32v-736c0-17.696-14.368-32-32-32zM606.016 878.016c-53.024 0-96-43.008-96-96 0-53.024 42.976-96 96-96 52.992 0 96 42.976 96 96 0 52.992-43.008 96-96 96zM702.016 640h-192v-384h192v384zM670.016 352h-128v32h128v-32zM180.864 434.144l123.616 33.12 8.32-30.912-123.648-33.12-8.288 30.912z"></path>
</svg>
